<svg xmlns="http://www.w3.org/2000/svg" width="36" height="36" viewBox="0 0 36 36" shape-rendering="crispEdges"><rect x="12" y="0" width="12" height="3" fill="#0d0d10"/><rect x="12" y="33" width="12" height="3" fill="#0d0d10"/><rect x="0" y="12" width="3" height="12" fill="#0d0d10"/><rect x="33" y="12" width="3" height="12" fill="#0d0d10"/><path d="M12,-1 l6,6 M18,-1 l-6,6" stroke="#cfc9bf" stroke-width="1" fill="none"/><path d="M12,31 l6,6 M18,31 l-6,6" stroke="#cfc9bf" stroke-width="1" fill="none"/><path d="M18,-1 l6,6 M24,-1 l-6,6" stroke="#cfc9bf" stroke-width="1" fill="none"/><path d="M18,31 l6,6 M24,31 l-6,6" stroke="#cfc9bf" stroke-width="1" fill="none"/><path d="M-1,12 l6,6 M5,12 l-6,6" stroke="#cfc9bf" stroke-width="1" fill="none"/><path d="M31,12 l6,6 M37,12 l-6,6" stroke="#cfc9bf" stroke-width="1" fill="none"/><path d="M-1,18 l6,6 M5,18 l-6,6" stroke="#cfc9bf" stroke-width="1" fill="none"/><path d="M31,18 l6,6 M37,18 l-6,6" stroke="#cfc9bf" stroke-width="1" fill="none"/><path d="M0,0 h12 v3 h-9 v9 h-3 z" fill="#0d0d10"/><path d="M36,0 h-12 v3 h9 v9 h3 z" fill="#0d0d10"/><path d="M0,36 h12 v-3 h-9 v-9 h-3 z" fill="#0d0d10"/><path d="M36,36 h-12 v-3 h9 v-9 h3 z" fill="#0d0d10"/><path d="M1,1 l6,6 M7,1 l-6,6" stroke="#cfc9bf" stroke-width="1" fill="none"/><path d="M29,1 l6,6 M35,1 l-6,6" stroke="#cfc9bf" stroke-width="1" fill="none"/><path d="M1,29 l6,6 M7,29 l-6,6" stroke="#cfc9bf" stroke-width="1" fill="none"/><path d="M29,29 l6,6 M35,29 l-6,6" stroke="#cfc9bf" stroke-width="1" fill="none"/></svg>